<svg xmlns="http://www.w3.org/2000/svg" width="489" height="489" viewbox="0 0 489 489" preserveAspectRatio="none"><rect x="0" y="0" width="100%" height="100%" fill="rgb(161, 45, 139)" /><rect x="0" y="14" width="100%" height="6" opacity="0.028666666666667" fill="#222" /><rect x="0" y="29" width="100%" height="16" opacity="0.11533333333333" fill="#222" /><rect x="0" y="52" width="100%" height="18" opacity="0.13266666666667" fill="#222" /><rect x="0" y="78" width="100%" height="17" opacity="0.124" fill="#ddd" /><rect x="0" y="112" width="100%" height="8" opacity="0.046" fill="#222" /><rect x="0" y="135" width="100%" height="9" opacity="0.054666666666667" fill="#ddd" /><rect x="0" y="163" width="100%" height="11" opacity="0.072" fill="#ddd" /><rect x="0" y="181" width="100%" height="7" opacity="0.037333333333333" fill="#ddd" /><rect x="0" y="206" width="100%" height="19" opacity="0.14133333333333" fill="#ddd" /><rect x="0" y="240" width="100%" height="20" opacity="0.15" fill="#222" /><rect x="0" y="272" width="100%" height="17" opacity="0.124" fill="#ddd" /><rect x="0" y="301" width="100%" height="20" opacity="0.15" fill="#222" /><rect x="0" y="334" width="100%" height="13" opacity="0.089333333333333" fill="#ddd" /><rect x="0" y="358" width="100%" height="12" opacity="0.080666666666667" fill="#222" /><rect x="0" y="379" width="100%" height="18" opacity="0.13266666666667" fill="#222" /><rect x="0" y="408" width="100%" height="9" opacity="0.054666666666667" fill="#ddd" /><rect x="0" y="436" width="100%" height="17" opacity="0.124" fill="#ddd" /><rect x="0" y="459" width="100%" height="6" opacity="0.028666666666667" fill="#222" /><rect x="0" y="475" width="100%" height="14" opacity="0.098" fill="#222" /><rect x="14" y="0" width="6" height="100%" opacity="0.028666666666667" fill="#222" /><rect x="29" y="0" width="16" height="100%" opacity="0.11533333333333" fill="#222" /><rect x="52" y="0" width="18" height="100%" opacity="0.13266666666667" fill="#222" /><rect x="78" y="0" width="17" height="100%" opacity="0.124" fill="#ddd" /><rect x="112" y="0" width="8" height="100%" opacity="0.046" fill="#222" /><rect x="135" y="0" width="9" height="100%" opacity="0.054666666666667" fill="#ddd" /><rect x="163" y="0" width="11" height="100%" opacity="0.072" fill="#ddd" /><rect x="181" y="0" width="7" height="100%" opacity="0.037333333333333" fill="#ddd" /><rect x="206" y="0" width="19" height="100%" opacity="0.14133333333333" fill="#ddd" /><rect x="240" y="0" width="20" height="100%" opacity="0.15" fill="#222" /><rect x="272" y="0" width="17" height="100%" opacity="0.124" fill="#ddd" /><rect x="301" y="0" width="20" height="100%" opacity="0.15" fill="#222" /><rect x="334" y="0" width="13" height="100%" opacity="0.089333333333333" fill="#ddd" /><rect x="358" y="0" width="12" height="100%" opacity="0.080666666666667" fill="#222" /><rect x="379" y="0" width="18" height="100%" opacity="0.13266666666667" fill="#222" /><rect x="408" y="0" width="9" height="100%" opacity="0.054666666666667" fill="#ddd" /><rect x="436" y="0" width="17" height="100%" opacity="0.124" fill="#ddd" /><rect x="459" y="0" width="6" height="100%" opacity="0.028666666666667" fill="#222" /><rect x="475" y="0" width="14" height="100%" opacity="0.098" fill="#222" /></svg>